<svg xmlns="http://www.w3.org/2000/svg" viewBox="0 0 1440 320"><path fill="#000" fill-opacity="0.9" d="M0,160L22.8,160C43.6,160,87,160,131,149.3C174.5,139,218,117,262,117.3C305.5,117,349,139,393,133.3C436.4,128,480,96,524,96C567.3,96,611,128,655,122.7C698.2,117,742,75,785,53.3C829.1,32,873,32,916,69.3C960,107,1004,181,1047,186.7C1090.9,192,1135,128,1178,106.7C1221.8,85,1265,107,1309,128C1352.7,149,1396,171,1418,181.3L1440,192L1440,0L1418.2,0C1396.4,0,1353,0,1309,0C1265.5,0,1222,0,1178,0C1134.5,0,1091,0,1047,0C1003.6,0,960,0,916,0C872.7,0,829,0,785,0C741.8,0,698,0,655,0C610.9,0,567,0,524,0C480,0,436,0,393,0C349.1,0,305,0,262,0C218.2,0,175,0,131,0C87.3,0,44,0,22,0L0,0Z"></path></svg>